<?xml version="1.0" standalone="no"?>
<!DOCTYPE svg PUBLIC "-//W3C//DTD SVG 20010904//EN"
 "http://www.w3.org/TR/2001/REC-SVG-20010904/DTD/svg10.dtd">
<svg version="1.0" xmlns="http://www.w3.org/2000/svg"
 width="500.000000pt" height="500.000000pt" viewBox="0 0 500.000000 500.000000"
 preserveAspectRatio="xMidYMid meet">

<g transform="translate(0.000000,500.000000) scale(0.100000,-0.100000)"
fill="currentColor" stroke="none">
<path d="M2190 3304 c-160 -34 -364 -120 -530 -223 -82 -51 -186 -97 -242
-108 -18 -3 -47 5 -89 26 -72 36 -116 39 -176 12 -29 -14 -48 -31 -61 -58 -44
-86 -37 -180 25 -313 34 -73 35 -78 33 -195 -1 -175 39 -289 111 -314 60 -21
79 8 104 159 20 119 28 140 55 140 26 0 34 -19 59 -135 35 -164 51 -188 114
-162 74 32 113 166 95 330 -9 86 -8 91 20 160 75 183 64 315 -31 372 l-39 23
29 20 c53 38 238 131 331 167 191 73 363 95 482 60 81 -25 161 -109 189 -198
44 -143 34 -312 -29 -513 -38 -118 -111 -272 -144 -303 -17 -16 -70 -35 -175
-62 -83 -21 -199 -57 -258 -80 -60 -23 -118 -43 -130 -46 l-23 -5 0 449 c0
376 -2 452 -14 469 -12 15 -18 17 -33 8 -17 -10 -18 -42 -23 -489 l-5 -479
-85 -48 c-181 -103 -280 -212 -280 -306 0 -37 6 -50 34 -78 33 -33 36 -34 115
-34 61 0 102 7 162 26 239 79 549 328 744 597 18 24 36 31 130 52 61 13 113
24 116 25 4 0 5 -19 2 -42 -9 -87 57 -143 158 -136 62 4 191 61 225 99 27 30
33 23 36 -38 3 -50 6 -58 24 -61 18 -3 26 9 54 77 34 86 76 157 97 165 10 4
13 -16 11 -94 -2 -105 7 -131 53 -145 25 -8 81 27 99 60 l14 26 22 -49 c18
-40 29 -52 58 -62 32 -10 42 -9 81 10 43 21 165 140 165 161 0 6 -24 -10 -52
-36 -79 -71 -122 -97 -155 -93 -50 6 -56 37 -47 222 l9 161 135 8 c74 4 141
10 149 13 34 12 -11 19 -142 24 l-142 5 -3 73 c-3 63 -5 72 -22 72 -21 0 -26
-12 -36 -92 -3 -32 -9 -58 -13 -59 -3 0 -27 -2 -53 -3 -82 -3 -79 -27 5 -36
l52 -5 -4 -130 c-3 -137 -12 -165 -62 -211 -20 -18 -21 -18 -35 0 -11 15 -12
39 -7 103 5 72 3 86 -12 103 -36 39 -103 17 -152 -50 -33 -44 -43 -43 -43 6 0
35 -15 46 -42 32 -14 -6 -18 -21 -18 -58 l0 -49 -67 -39 c-74 -43 -150 -72
-189 -72 -36 0 -84 51 -84 88 0 39 14 48 83 55 66 6 107 28 107 57 0 27 -33
42 -91 42 -52 -1 -80 -12 -119 -47 -18 -16 -52 -27 -123 -40 -54 -9 -101 -14
-104 -11 -4 3 19 59 50 123 219 462 150 845 -167 929 -65 17 -202 17 -286 -2z
m-858 -345 c44 -22 69 -29 90 -25 24 5 12 -10 -75 -97 -58 -56 -122 -128 -142
-160 -22 -33 -42 -54 -47 -49 -5 5 -20 40 -33 78 -41 115 -29 229 29 269 35
25 109 19 178 -16z m334 6 c68 -44 72 -183 11 -326 -35 -80 -37 -88 -27 -138
28 -151 -16 -341 -80 -341 -21 0 -34 35 -65 184 -20 94 -49 132 -93 122 -41
-10 -59 -39 -72 -118 -28 -162 -34 -183 -57 -186 -54 -8 -108 146 -101 284 4
71 9 91 49 169 52 105 156 221 282 316 84 64 101 67 153 34z m1289 -654 c7
-12 -1 -17 -44 -26 -38 -8 -36 10 3 25 28 12 34 12 41 1z m-568 -218 c-60 -74
-206 -218 -277 -275 -218 -173 -471 -276 -547 -223 -58 40 -24 149 73 233 49
42 179 130 195 131 4 1 9 -31 11 -70 2 -45 9 -73 17 -79 36 -22 51 16 51 126
l0 64 58 26 c142 63 451 158 466 144 5 -5 -14 -37 -47 -77z"/>
<path d="M1197 2939 c-17 -10 -47 -59 -47 -78 0 -5 14 4 30 19 18 17 47 31 72
35 41 7 41 8 17 21 -29 16 -48 17 -72 3z"/>
<path d="M2050 2930 c0 -63 3 -80 14 -80 10 0 16 14 18 43 l3 42 20 -32 c25
-41 40 -41 62 0 l18 32 3 -42 c3 -35 7 -43 23 -43 18 0 20 6 17 77 -2 50 -7
78 -15 81 -7 2 -27 -19 -45 -48 l-31 -51 -30 51 c-43 74 -57 67 -57 -30z"/>
<path d="M2282 2938 c-18 -40 -32 -76 -32 -80 0 -14 31 -8 36 7 4 10 20 15 45
15 26 0 42 -5 45 -15 4 -10 20 -15 44 -15 30 0 43 6 58 27 l19 26 18 -26 c9
-15 26 -27 36 -27 25 0 24 5 -7 45 l-25 34 25 38 c22 31 24 39 11 41 -9 2 -25
-8 -36 -22 l-21 -26 -20 25 c-19 24 -48 34 -48 16 0 -4 9 -20 20 -34 11 -14
20 -30 20 -36 0 -14 -41 -71 -50 -71 -4 0 -21 34 -39 75 -43 98 -57 98 -99 3z
m62 6 c10 -26 7 -34 -15 -34 -15 0 -19 4 -15 16 3 9 6 20 6 25 0 15 17 10 24
-7z"/>
</g>
</svg>
