<?xml version="1.0" standalone="no"?>
<!DOCTYPE svg PUBLIC "-//W3C//DTD SVG 20010904//EN"
 "http://www.w3.org/TR/2001/REC-SVG-20010904/DTD/svg10.dtd">
<svg version="1.0" xmlns="http://www.w3.org/2000/svg"
 width="134.000000pt" height="142.000000pt" viewBox="0 0 134.000000 142.000000"
 preserveAspectRatio="xMidYMid meet">

<g transform="translate(0.000000,142.000000) scale(0.100000,-0.100000)"
fill="#000000" stroke="none">
<path d="M650 1115 c0 -164 0 -165 -32 -236 -31 -70 -33 -72 -102 -105 l-70
-34 -186 -2 -185 -2 180 -5 c179 -6 180 -6 254 -41 72 -34 74 -36 107 -104
l34 -70 0 -173 c0 -109 4 -173 10 -173 6 0 10 64 10 173 l0 173 34 70 c33 68
35 70 107 104 71 34 79 35 224 41 l150 5 -155 2 c-154 2 -156 2 -226 36 -69
33 -71 35 -102 105 -32 71 -32 72 -32 236 0 103 -4 165 -10 165 -6 0 -10 -62
-10 -165z"/>
</g>
</svg>
