<?xml version="1.0" standalone="no"?>
<!DOCTYPE svg PUBLIC "-//W3C//DTD SVG 20010904//EN"
 "http://www.w3.org/TR/2001/REC-SVG-20010904/DTD/svg10.dtd">
<svg version="1.0" xmlns="http://www.w3.org/2000/svg"
 width="465.000000pt" height="228.000000pt" viewBox="0 0 465.000000 228.000000"
 preserveAspectRatio="xMidYMid meet">

<g transform="translate(0.000000,228.000000) scale(0.100000,-0.100000)"
fill="#000000" stroke="none">
<path d="M0 1140 l0 -1140 2325 0 2325 0 0 1140 0 1140 -2325 0 -2325 0 0
-1140z m2130 470 c34 -80 73 -155 87 -167 l24 -23 -73 1 c-40 1 -66 3 -56 6
24 6 27 24 11 66 l-15 37 -69 0 c-66 0 -69 -1 -84 -30 -20 -38 -19 -57 3 -69
13 -8 4 -10 -38 -11 -51 0 -53 1 -33 15 11 8 40 58 63 112 90 205 101 226 110
217 4 -5 36 -74 70 -154z m-568 28 c31 -68 60 -122 64 -120 5 2 33 57 63 123
l54 119 56 -1 c50 0 53 -2 28 -11 l-28 -10 3 -151 3 -151 25 -7 c14 -4 -11 -7
-60 -7 -49 0 -74 3 -60 7 25 7 25 8 28 136 l2 130 -62 -137 c-35 -76 -66 -138
-69 -138 -3 0 -32 57 -64 128 -32 70 -62 131 -67 137 -5 6 -8 -41 -6 -115 3
-121 4 -125 28 -137 23 -12 19 -13 -40 -13 -59 0 -63 1 -40 13 25 12 25 14 28
154 l3 142 -28 15 c-28 15 -28 15 28 16 l55 0 56 -122z m833 108 c-18 -13 -17
-16 15 -66 l34 -53 38 43 c41 46 48 76 21 83 -10 3 11 5 47 5 45 1 59 -2 44
-8 -12 -5 -47 -38 -77 -74 l-56 -66 59 -84 c33 -45 70 -88 82 -94 19 -9 8 -11
-57 -10 -44 0 -72 2 -62 5 26 7 21 30 -20 86 l-37 50 -48 -54 c-26 -30 -48
-58 -48 -62 0 -4 10 -12 23 -17 16 -6 6 -9 -43 -9 -46 0 -59 3 -44 9 31 12
146 149 138 163 -32 55 -110 147 -132 156 -22 7 -10 10 57 10 74 1 82 -1 66
-13z m641 -5 c142 -65 127 -264 -23 -309 -48 -14 -261 -16 -225 -2 21 9 22 13
22 160 0 147 -1 151 -22 160 -16 6 13 9 92 9 91 0 123 -3 156 -18z m412 -26
l3 -40 -20 33 c-20 31 -23 32 -86 32 l-65 0 0 -65 0 -66 57 3 c50 3 59 6 70
28 12 23 13 19 13 -40 -1 -54 -3 -61 -12 -45 -17 30 -28 35 -80 35 l-48 0 0
-75 0 -75 66 0 c59 0 68 3 95 29 32 32 34 30 18 -18 l-11 -31 -136 1 c-92 0
-130 3 -114 9 21 9 22 13 22 158 0 145 -1 149 -22 160 -18 8 8 11 112 9 l135
-2 3 -40z m249 -77 l108 -122 3 99 c3 112 1 122 -30 135 -17 6 -7 9 42 8 36 0
55 -3 43 -5 -30 -6 -33 -21 -36 -193 l-2 -144 -120 134 -120 133 -3 -99 c-3
-118 1 -142 31 -154 16 -6 5 -9 -43 -9 -59 -1 -63 1 -40 12 25 13 25 13 25
152 l0 140 -35 17 -35 18 52 0 52 0 108 -122z m513 80 l-1 -43 -15 27 c-15 29
-46 42 -85 36 -24 -3 -24 -5 -27 -128 -3 -145 1 -168 31 -180 16 -6 -1 -9 -58
-9 -71 -1 -77 1 -55 12 25 12 25 14 28 160 l3 147 -30 0 c-42 0 -81 -17 -81
-35 0 -8 -5 -15 -11 -15 -6 0 -8 7 -5 16 3 9 6 24 6 35 0 18 9 19 150 19 l150
0 0 -42z m-3172 -556 c18 -34 35 -49 75 -68 47 -22 66 -24 212 -26 l160 -2
-160 -6 c-140 -5 -167 -8 -213 -29 -44 -20 -57 -32 -78 -72 -22 -45 -24 -61
-26 -206 l-2 -158 -6 145 c-5 131 -8 151 -33 203 -24 52 -33 61 -85 85 -52 25
-71 27 -212 32 l-155 6 156 2 c143 2 161 4 210 27 49 22 58 31 87 90 31 64 32
69 34 208 l2 142 6 -165 c4 -147 8 -170 28 -208z m-646 -579 l61 -128 26 55
c14 30 41 88 59 128 l34 72 51 -1 c41 0 47 -2 30 -9 -22 -9 -23 -13 -23 -160
0 -147 1 -151 23 -160 16 -6 -1 -9 -58 -9 -65 1 -75 2 -52 11 l27 10 -1 126 0
127 -20 -40 c-10 -22 -40 -85 -64 -139 -26 -55 -49 -95 -54 -90 -5 5 -35 67
-67 139 l-59 130 -3 -114 c-1 -63 0 -121 2 -128 3 -7 16 -18 28 -23 18 -7 7
-9 -42 -9 -59 -1 -63 1 -40 12 24 12 25 16 28 137 3 145 0 163 -30 178 -20 9
-16 11 30 11 l53 1 61 -127z"/>
<path d="M2006 1619 c-14 -33 -26 -62 -26 -65 0 -2 25 -4 55 -4 30 0 55 4 55
10 0 12 -48 120 -53 120 -2 0 -16 -27 -31 -61z"/>
<path d="M2883 1733 c-10 -3 -13 -43 -13 -149 l0 -144 45 0 c100 0 155 52 155
146 0 62 -29 111 -80 136 -34 17 -81 22 -107 11z"/>
</g>
</svg>
