<?xml version="1.0" standalone="no"?>
<!DOCTYPE svg PUBLIC "-//W3C//DTD SVG 20010904//EN"
 "http://www.w3.org/TR/2001/REC-SVG-20010904/DTD/svg10.dtd">
<svg version="1.0" xmlns="http://www.w3.org/2000/svg"
 width="431.000000pt" height="176.000000pt" viewBox="0 0 431.000000 176.000000"
 preserveAspectRatio="xMidYMid meet">

<g transform="translate(0.000000,176.000000) scale(0.100000,-0.100000)"
fill="#000000" stroke="none">
<path d="M1522 1423 c-2 -133 -4 -145 -32 -207 -27 -61 -34 -69 -82 -91 -48
-22 -67 -25 -203 -27 l-150 -2 140 -3 c126 -3 146 -6 201 -30 55 -24 64 -32
90 -82 27 -52 29 -66 35 -206 l5 -150 2 152 c2 136 5 158 26 206 20 47 29 56
77 77 47 21 75 25 204 30 l150 6 -153 2 c-141 2 -156 4 -202 27 -81 41 -94 75
-100 275 l-6 165 -2 -142z"/>
<path d="M1853 1503 c25 -29 25 -197 0 -212 -15 -8 -11 -10 20 -11 35 0 37 1
23 16 -12 11 -16 36 -16 95 0 51 4 78 10 74 6 -3 10 -10 10 -14 0 -5 18 -46
39 -92 l39 -84 45 95 46 95 0 -87 c1 -74 -1 -87 -16 -91 -10 -3 7 -5 37 -6 42
0 51 2 38 10 -15 8 -18 25 -18 109 0 84 3 101 18 110 14 8 10 10 -18 8 -33 -3
-37 -7 -74 -85 -22 -46 -42 -83 -46 -83 -4 0 -24 37 -46 83 -37 77 -41 82 -74
85 -33 3 -34 3 -17 -15z"/>
<path d="M2235 1413 c-25 -60 -54 -114 -63 -120 -13 -11 -10 -13 24 -13 28 0
35 3 24 10 -11 7 -12 15 -4 37 9 26 14 28 59 28 45 0 50 -2 59 -28 8 -22 7
-30 -4 -37 -11 -7 0 -10 33 -10 41 0 46 2 35 14 -8 7 -34 61 -59 120 -24 58
-47 106 -50 106 -4 0 -28 -48 -54 -107z m60 11 c21 -51 20 -54 -20 -54 -19 0
-35 4 -35 10 0 10 32 80 37 80 1 0 10 -16 18 -36z"/>
<path d="M2447 1505 c11 -8 37 -37 56 -64 l36 -49 -53 -56 -52 -56 36 0 c24 0
31 3 21 9 -11 7 -8 17 18 50 18 23 34 41 35 41 2 0 16 -18 32 -41 23 -34 25
-42 13 -50 -9 -6 4 -9 41 -9 42 1 51 3 37 11 -9 5 -35 35 -58 65 l-40 54 37
46 c20 24 44 49 53 54 12 7 6 9 -23 10 -31 0 -36 -3 -27 -13 8 -10 3 -22 -18
-48 -16 -19 -31 -32 -33 -29 -40 48 -47 64 -37 76 9 12 2 14 -42 14 -50 0 -52
-1 -32 -15z"/>
<path d="M2803 1509 c14 -8 17 -25 17 -109 0 -84 -3 -101 -17 -109 -28 -16
121 -14 161 3 53 22 79 63 73 115 -9 78 -65 110 -197 110 -42 0 -51 -2 -37
-10z m141 -20 c34 -16 60 -72 52 -113 -9 -48 -47 -79 -98 -80 l-43 -1 -3 89
c-2 49 -1 95 2 103 7 16 56 17 90 2z"/>
<path d="M3083 1509 c14 -8 17 -25 17 -109 0 -84 -3 -101 -17 -109 -13 -8 8
-10 80 -11 53 0 97 4 97 9 0 5 3 17 7 27 6 16 3 15 -21 -4 -19 -14 -43 -22
-67 -22 l-39 0 0 55 0 55 33 0 c18 0 38 -5 45 -12 9 -9 12 -6 12 17 0 23 -3
26 -12 17 -7 -7 -27 -12 -45 -12 -32 0 -33 1 -33 45 l0 45 43 0 c24 0 48 -5
55 -12 9 -9 12 -7 12 10 0 21 -4 22 -92 22 -68 -1 -88 -3 -75 -11z"/>
<path d="M3308 1504 c20 -14 22 -23 22 -114 0 -85 -2 -99 -17 -103 -10 -3 2
-5 26 -6 39 -1 42 1 27 12 -14 10 -16 26 -14 91 l3 79 80 -92 80 -92 3 108 c2
87 6 110 19 121 14 10 11 12 -23 12 -31 -1 -36 -3 -21 -11 14 -8 17 -24 17
-87 l-1 -77 -82 88 c-68 73 -87 88 -112 87 l-29 0 22 -16z"/>
<path d="M3577 1513 c-4 -3 -7 -18 -6 -32 0 -16 3 -20 6 -11 8 21 24 30 56 30
l27 0 0 -100 c0 -84 -3 -101 -17 -109 -14 -8 -5 -10 37 -10 30 0 48 3 40 6
-26 10 -30 25 -30 121 l0 92 35 0 c22 0 38 -6 44 -17 9 -15 10 -14 11 10 l0
27 -98 0 c-54 0 -102 -3 -105 -7z"/>
<path d="M370 900 c0 -5 7 -10 15 -10 27 0 63 -22 74 -47 15 -32 15 -556 1
-584 -7 -11 -26 -21 -50 -25 -79 -13 -38 -24 86 -24 81 0 123 4 119 10 -3 6
-17 10 -31 10 -13 0 -33 9 -44 20 -19 19 -20 33 -20 283 l0 262 108 -235 c60
-129 120 -261 135 -293 14 -31 30 -57 35 -57 5 0 64 120 132 268 67 147 128
278 136 292 11 21 13 -11 14 -233 l0 -258 -25 -24 c-13 -14 -36 -25 -50 -25
-14 0 -25 -4 -25 -10 0 -6 58 -10 155 -10 97 0 155 4 155 10 0 6 -11 10 -24
10 -13 0 -35 9 -50 21 l-26 20 0 290 c0 276 1 290 20 309 11 11 33 20 50 20
17 0 30 5 30 10 0 7 -38 10 -107 8 l-107 -3 -120 -262 c-66 -144 -123 -259
-127 -255 -3 4 -60 123 -125 264 l-119 258 -107 0 c-66 0 -108 -4 -108 -10z"/>
</g>
</svg>
